PathFileType	4	(X/Y/Z)	/Users/niels/Desktop/University/Third Semester/Perception and Action/Exam/Gymnastics Motion Tracking/Code for Gym Tracking/Analyzed Data/Webcam_Backflip/id7_1_baseline_Sports2D/id7_1_baseline_Sports2D_px_person00.trc
DataRate	CameraRate	NumFrames	NumMarkers	Units	OrigDataRate	OrigDataStartFrame	OrigNumFrames
29.708737864077673	29.708737864077673	7	22	m	29.708737864077673	77	103
Frame#	Time	Hip			RHip			RKnee			RAnkle			RBigToe			RSmallToe			RHeel			LHip			LKnee			LAnkle			LBigToe			LSmallToe			LHeel			Neck			Head			Nose			RShoulder			RElbow			RWrist			LShoulder			LElbow			LWrist		
		X1	Y1	Z1	X2	Y2	Z2	X3	Y3	Z3	X4	Y4	Z4	X5	Y5	Z5	X6	Y6	Z6	X7	Y7	Z7	X8	Y8	Z8	X9	Y9	Z9	X10	Y10	Z10	X11	Y11	Z11	X12	Y12	Z12	X13	Y13	Z13	X14	Y14	Z14	X15	Y15	Z15	X16	Y16	Z16	X17	Y17	Z17	X18	Y18	Z18	X19	Y19	Z19	X20	Y20	Z20	X21	Y21	Z21	X22	Y22	Z22
77	2.591830065359477	0.9073362565573315	-0.482470533886132	0.0	0.9036035178312501	-0.4782096505746437	0.0	0.9451133661974123	-0.7128628920099331	0.0	0.8691750964881674	-0.941419245048165	0.0	0.967332911254592	-0.9805731921342744	0.0	0.9460397634434756	-0.9935948151299794	0.0	0.8425675163807023	-0.9695604599270166	0.0	0.909738271464557	-0.4816008422955007	0.0	0.944514284704572	-0.7052878600235094	0.0	0.8780372115803592	-0.916040798836102	0.0	0.9681038039393852	-0.9560187649453147	0.0	0.9553512616514511	-0.9492604482777289	0.0	0.8424033925236254	-0.9444354812864103	0.0	0.9074376392008354	-0.15907750554954359	0.0	0.9877283270893268	-0.022413129158522824	0.0	0.9772250836560721	-0.11430207048713453	0.0	0.8616882696266037	-0.1896363488862534	0.0	0.7628052529500978	-0.34122176168135904	0.0	0.684084199313073	-0.4873573708232915	0.0	0.8949967430181092	-0.1977219239179234	0.0	0.795219310852273	-0.35345671083941443	0.0	0.7810349902357662	-0.48724693430393784	0.0
78	2.6254901960784314	0.9044988427414906	-0.4779348510799886	0.0	0.9004618156320443	-0.47248852367375554	0.0	0.9378373312707822	-0.7102605199536066	0.0	0.86845932995141	-0.9414086117587941	0.0	0.9660322821989024	-0.9799250070955444	0.0	0.9447929910013573	-0.99266254281939	0.0	0.8417129843673081	-0.9695150964181442	0.0	0.9044760443685799	-0.4774039071867503	0.0	0.9379442649037298	-0.7026454954491228	0.0	0.875900008749971	-0.9148605641080197	0.0	0.9646566509376524	-0.9556548834688545	0.0	0.9518683882494482	-0.948411264306981	0.0	0.8424168898767066	-0.9438597066853789	0.0	0.9109452288300783	-0.15588753868098393	0.0	0.9938269328234212	-0.019678035942779303	0.0	0.980991932915395	-0.11190213779453133	0.0	0.8625768350864188	-0.18273973216922015	0.0	0.7521427541366729	-0.32503468570958916	0.0	0.6588238607975989	-0.4636281801925916	0.0	0.9012732692732051	-0.19302255011489594	0.0	0.7912984829356794	-0.3433570683546387	0.0	0.7775767802337801	-0.47390388720260057	0.0
79	2.6591503267973855	0.9002411966001432	-0.4743343411864775	0.0	0.8960055958737094	-0.46786306308869163	0.0	0.929211356133954	-0.7078213306375688	0.0	0.8672576783241495	-0.9413865607971218	0.0	0.9650778504620826	-0.979306661393556	0.0	0.9437554420827464	-0.9914647929070124	0.0	0.8404523489761468	-0.9696189134397397	0.0	0.8981260719936387	-0.4738520475675869	0.0	0.9294598981269174	-0.7006340389598185	0.0	0.8733467887062567	-0.914377772209257	0.0	0.9623356229907629	-0.9561399079402559	0.0	0.9496128391546774	-0.9485771956901965	0.0	0.8427789959615665	-0.9442946521684701	0.0	0.914599373127972	-0.15217345238392999	0.0	0.9996530899375738	-0.016721238419797398	0.0	0.9857788737595934	-0.10901936185581401	0.0	0.864165127492722	-0.17591490543726035	0.0	0.7453967758175267	-0.308819351921531	0.0	0.6406119114336648	-0.43993090306659144	0.0	0.9076896700930578	-0.18806296155613048	0.0	0.7911192933786078	-0.33194138675953005	0.0	0.7767723244750535	-0.46078720951070296	0.0
80	2.6928104575163396	0.8945777949564829	-0.4717359011342397	0.0	0.890502167517834	-0.46450857348988417	0.0	0.9197309329747555	-0.705713002649819	0.0	0.865731264998452	-0.9413284983638396	0.0	0.9644816187192774	-0.9787361644916233	0.0	0.9429731270580638	-0.9902750726999285	0.0	0.838973557075057	-0.9698628652173209	0.0	0.8914630219068914	-0.47105857640418797	0.0	0.9198865360920887	-0.6993593370518858	0.0	0.8706492225193104	-0.9145925346223369	0.0	0.9610461549804125	-0.9571695088365402	0.0	0.9484699403166429	-0.9494913172737379	0.0	0.8430070107162249	-0.9456165276038025	0.0	0.9184902952027677	-0.14839257272841266	0.0	1.005541854965712	-0.014168532059802879	0.0	0.9914136838031662	-0.10627364469123857	0.0	0.8665471286771393	-0.1697203807223219	0.0	0.7422135739126416	-0.29360831155254996	0.0	0.6289230864156115	-0.41753897097806814	0.0	0.914197791936377	-0.18353933713154869	0.0	0.7931974370752712	-0.320152000750952	0.0	0.7775392309591992	-0.44834317193006773	0.0
81	2.726470588235294	0.887742766188544	-0.4700820913262794	0.0	0.8840837488853354	-0.46255078899197416	0.0	0.9097009422751365	-0.7041050665993773	0.0	0.864082504804474	-0.9412976856131314	0.0	0.9641088587399853	-0.978320041153111	0.0	0.9424650476908174	-0.9894003662356141	0.0	0.8375587675934231	-0.9701883601424496	0.0	0.8851264957074	-0.46909158406598433	0.0	0.9099454871944066	-0.698706562556382	0.0	0.8680734255152016	-0.9152423089159456	0.0	0.9603949706405484	-0.958124580824831	0.0	0.947985424784321	-0.9504609154006164	0.0	0.8428161076319872	-0.9471956244685893	0.0	0.9226381620010101	-0.14512120827749733	0.0	1.0119215318090995	-0.01254512893541348	0.0	0.997560548842179	-0.10434040549047686	0.0	0.8696464573047025	-0.16459176172603338	0.0	0.7416954805661684	-0.28027486242464494	0.0	0.6226038339204583	-0.39746860838787895	0.0	0.9206207408851158	-0.17993038194744196	0.0	0.7958713432412997	-0.30893169233592693	0.0	0.7793697098411189	-0.436348538436563	0.0
82	2.7601307189542483	0.8801597936072956	-0.46920258765230793	0.0	0.8767527787547639	-0.46194746926981084	0.0	0.8992687743786422	-0.702994738081664	0.0	0.8624565196076713	-0.9413608464704667	0.0	0.9637483273743112	-0.978146276502253	0.0	0.942147747011828	-0.9890010243030013	0.0	0.8364150965026067	-0.9704704722867313	0.0	0.8795120247928352	-0.46792641614082	0.0	0.9001022363097876	-0.6983732748964513	0.0	0.8657901446658341	-0.9159446046422793	0.0	0.9599326849944321	-0.9584040591895668	0.0	0.9477244376585582	-0.9508092766283295	0.0	0.8421383539480102	-0.9483428124873508	0.0	0.926971483413589	-0.14294016697810072	0.0	1.0190420028838671	-0.012194348683623167	0.0	1.003862257684667	-0.10380883581550186	0.0	0.8731665749627716	-0.16083611295462463	0.0	0.7425525723048287	-0.26946088658468886	0.0	0.6199803200753503	-0.38059123920461657	0.0	0.9267088320323607	-0.17755017325133413	0.0	0.7980484917921772	-0.2991737891294966	0.0	0.7823829089856636	-0.42419033920361293	0.0
83	2.7937908496732025	0.8722756466020294	-0.4688357293730366	0.0	0.8685358037824558	-0.462387319008805	0.0	0.8885722802487894	-0.7022983044705022	0.0	0.8609540580628169	-0.9415427081016904	0.0	0.9632104103180074	-0.9781967231936012	0.0	0.9418353215422596	-0.9890507930852876	0.0	0.8355847117509001	-0.970592495193132	0.0	0.8747388687885777	-0.4674272933123214	0.0	0.8906433806845844	-0.6981204994311107	0.0	0.8638020266534552	-0.9164268589100987	0.0	0.9593768419125068	-0.9577317931452288	0.0	0.9474357345079053	-0.9502137466610394	0.0	0.8408961863754141	-0.9487331893302017	0.0	0.9313823874629039	-0.14222192114095958	0.0	1.0268040021599458	-0.013310953451966681	0.0	1.010055593484246	-0.1050599801804293	0.0	0.8767936969748772	-0.15857963493004446	0.0	0.743669106413761	-0.26135519826650044	0.0	0.619324107622567	-0.36734955708236033	0.0	0.932303406454241	-0.1765846954581261	0.0	0.7996326788458608	-0.2915460095976513	0.0	0.7874366364766128	-0.41129418107991594	0.0
